<svg id="svg" xmlns="http://www.w3.org/2000/svg" xmlns:xlink="http://www.w3.org/1999/xlink" width="400" height="400" viewBox="0, 0, 400,400"><g id="svgg"><path id="path0" d="M132.422 1.549 C 28.805 18.301,-29.409 127.498,14.404 222.929 C 53.291 307.634,160.812 339.154,240.023 289.071 C 244.737 286.090,246.094 285.809,246.094 287.812 C 246.094 294.397,341.729 392.237,353.125 397.310 C 376.154 407.562,401.108 390.338,399.852 365.057 C 399.186 351.629,401.697 354.728,346.934 299.764 C 298.895 251.548,294.598 247.631,288.383 246.388 C 285.389 245.789,285.388 245.975,288.433 241.102 C 360.031 126.551,264.694 -19.837,132.422 1.549 M165.479 40.639 C 275.264 50.357,312.287 192.182,220.934 253.071 C 134.911 310.408,21.750 234.159,42.656 132.947 C 53.732 79.325,96.706 43.779,155.078 39.959 C 155.938 39.903,160.618 40.209,165.479 40.639 " stroke="none" fill="#000000" fill-rule="evenodd"></path></g></svg>