<?xml version="1.0" standalone="no"?>
<!DOCTYPE svg PUBLIC "-//W3C//DTD SVG 20010904//EN"
 "http://www.w3.org/TR/2001/REC-SVG-20010904/DTD/svg10.dtd">
<svg version="1.0" xmlns="http://www.w3.org/2000/svg"
 width="532.000000pt" height="515.000000pt" viewBox="0 0 532.000000 515.000000"
 preserveAspectRatio="xMidYMid meet">

<g transform="translate(0.000000,515.000000) scale(0.100000,-0.100000)"
fill="#000000" stroke="none">
<path d="M0 2575 l0 -2575 2660 0 2660 0 0 2575 0 2575 -2660 0 -2660 0 0
-2575z m4785 2431 c25 -6 26 -8 10 -20 -13 -10 -16 -20 -11 -40 7 -27 6 -27
-16 -12 -20 15 -24 14 -46 -7 l-25 -22 7 29 c5 20 2 34 -10 47 -16 18 -16 19
5 19 13 0 26 10 33 26 11 24 12 24 19 6 4 -11 20 -22 34 -26z m-2624 -61 c-3
-5 -4 -19 -2 -30 3 -16 1 -17 -13 -6 -13 11 -19 11 -33 0 -15 -12 -16 -12 -10
5 4 10 2 25 -4 32 -9 11 -8 14 5 14 9 0 19 6 22 14 5 12 8 12 23 -2 10 -9 15
-21 12 -27z m1152 -99 c-4 -21 -8 -24 -19 -15 -11 9 -18 8 -31 -2 -15 -12 -16
-12 -10 5 4 10 2 25 -4 32 -9 11 -7 14 10 14 12 0 21 6 21 15 0 12 4 11 19 -4
12 -12 17 -27 14 -45z m-2990 -56 c19 -1 20 -2 5 -10 -11 -7 -14 -17 -10 -32
5 -20 3 -21 -10 -10 -11 9 -18 10 -23 2 -11 -18 -23 -11 -18 10 3 13 0 20 -8
20 -10 1 -8 4 4 11 9 5 17 18 17 27 1 16 1 16 11 0 5 -10 20 -18 32 -18z
m4173 -104 c9 -10 10 -17 4 -21 -6 -4 -8 -10 -5 -15 3 -4 -6 -7 -19 -6 -18 1
-24 7 -23 21 1 17 13 34 25 35 2 0 10 -6 18 -14z m-3530 -216 c17 -1 18 -1 2
-11 -11 -6 -15 -16 -11 -26 4 -11 3 -14 -6 -9 -6 4 -18 2 -26 -4 -12 -10 -15
-9 -15 7 0 10 -5 24 -12 31 -9 9 -8 12 5 12 9 0 17 8 17 18 1 16 1 16 14 0 7
-10 22 -18 32 -18z m2666 -92 c2 -16 12 -24 33 -28 29 -6 29 -6 6 -14 -21 -7
-23 -13 -18 -48 l5 -40 -24 23 c-22 20 -28 22 -45 10 -27 -16 -34 -9 -19 19
10 18 9 24 -1 31 -8 5 -17 9 -21 9 -5 0 -8 5 -8 10 0 6 11 8 25 4 20 -5 27 -1
36 20 15 32 27 33 31 4z m-1692 -12 c0 -8 10 -18 22 -22 19 -6 20 -8 6 -18
-11 -8 -13 -17 -6 -35 9 -25 9 -25 -12 -6 -18 16 -24 17 -41 6 -19 -11 -20
-10 -14 9 4 12 1 27 -5 35 -10 12 -9 15 9 15 12 0 21 6 21 15 0 8 5 15 10 15
6 0 10 -6 10 -14z m2445 -95 c7 -42 20 -50 85 -51 31 -1 33 -3 16 -13 -57 -37
-60 -41 -46 -81 17 -51 6 -56 -35 -16 l-35 34 -30 -22 c-42 -31 -51 -28 -34
13 18 45 18 48 -8 60 -39 18 -33 35 10 35 39 0 40 1 47 40 9 51 21 51 30 1z
m-1709 -29 c15 -9 3 -37 -16 -37 -19 0 -31 28 -16 37 6 4 13 8 16 8 3 0 10 -4
16 -8z m-1359 -39 c8 -35 12 -38 48 -43 l40 -5 -32 -20 c-36 -21 -37 -23 -24
-77 5 -21 6 -38 3 -38 -3 0 -20 13 -37 30 l-31 30 -36 -25 c-20 -14 -40 -25
-43 -25 -3 0 4 18 15 40 11 21 20 42 20 44 0 3 -13 12 -30 21 -41 21 -38 31
10 27 40 -4 41 -3 57 37 9 23 19 41 24 41 4 0 11 -17 16 -37z m2525 -128 c0
-5 -5 -11 -11 -13 -6 -2 -11 4 -11 13 0 9 5 15 11 13 6 -2 11 -8 11 -13z
m1231 -159 c-4 -21 -8 -24 -19 -15 -11 9 -18 8 -31 -2 -15 -12 -16 -12 -10 5
4 10 2 25 -4 32 -9 11 -8 14 5 14 9 0 19 6 22 14 10 26 43 -17 37 -48z m-1979
-155 l31 -8 -27 -13 c-25 -12 -27 -17 -22 -54 l5 -41 -30 34 c-28 32 -30 33
-52 17 -35 -24 -41 -20 -23 15 15 30 15 32 -7 55 l-23 24 32 -6 c28 -6 34 -3
49 25 l18 32 9 -36 c8 -28 16 -37 40 -44z m-1296 -19 c26 -4 29 -17 6 -26 -12
-4 -15 -15 -12 -36 5 -36 2 -37 -21 -9 -15 19 -21 20 -39 10 -21 -11 -22 -10
-16 14 5 19 1 30 -12 40 -18 14 -17 14 8 15 18 0 32 8 40 23 l12 22 6 -25 c4
-16 14 -26 28 -28z m2072 -186 c28 -11 28 -12 9 -24 -16 -10 -19 -20 -14 -45
l6 -32 -21 24 c-18 21 -24 22 -45 13 -26 -12 -31 -7 -15 18 6 10 4 20 -7 32
-15 17 -15 18 6 18 14 0 26 10 34 27 12 27 12 27 15 4 2 -14 15 -27 32 -35z
m-3312 -16 c14 0 14 -2 3 -9 -8 -5 -11 -16 -8 -24 4 -11 1 -14 -9 -10 -8 3
-22 -1 -31 -8 -15 -12 -16 -11 -11 8 4 13 2 25 -3 28 -4 3 -1 14 9 23 13 14
19 15 25 5 4 -7 16 -13 25 -13z m1767 -134 c25 -6 26 -8 10 -20 -13 -10 -16
-20 -11 -40 7 -27 6 -27 -16 -12 -20 15 -24 14 -46 -7 l-25 -22 7 29 c5 20 2
34 -10 47 -16 18 -16 19 5 19 13 0 26 10 33 26 11 24 12 24 19 6 4 -11 20 -22
34 -26z m870 -27 c2 -8 -5 -15 -15 -15 -15 0 -17 6 -11 34 2 10 25 -6 26 -19z
m1100 -79 c0 -23 -4 -27 -27 -26 -16 1 -28 7 -28 14 0 6 -4 12 -10 12 -5 0
-10 5 -10 10 0 6 7 10 15 10 8 0 15 6 15 14 0 11 5 12 23 4 15 -8 22 -20 22
-38z m-2785 -12 c13 5 13 3 0 -13 -8 -10 -13 -28 -11 -39 3 -20 3 -20 -17 -3
-13 12 -22 15 -27 8 -11 -19 -27 -13 -16 6 7 13 5 21 -7 30 -15 11 -15 12 6
13 12 0 25 7 29 16 5 14 7 14 17 -3 6 -12 18 -18 26 -15z m-601 -98 l36 -1
-27 -15 c-32 -17 -34 -24 -13 -64 18 -35 13 -37 -23 -9 l-27 21 -20 -26 c-29
-36 -38 -32 -30 14 6 37 5 41 -21 52 l-28 13 34 5 c31 4 36 10 45 45 l10 39
14 -37 c12 -33 18 -37 50 -37z m-753 32 c16 -10 3 -37 -18 -38 -11 -1 -18 5
-18 15 0 28 15 38 36 23z m1780 -67 c-16 -18 -47 -16 -44 3 5 32 22 41 39 24
10 -11 12 -20 5 -27z m-226 -221 c0 -15 -21 -15 -32 1 -8 11 12 26 24 19 4 -3
8 -12 8 -20z m3469 -49 c23 -6 24 -8 8 -17 -14 -7 -17 -17 -12 -40 7 -30 7
-30 -16 -14 -22 15 -24 14 -46 -6 l-23 -22 6 33 c5 24 2 35 -12 46 -18 14 -18
14 7 15 21 0 29 6 34 28 7 26 7 27 17 5 6 -12 22 -24 37 -28z m-494 -95 c10 0
11 -5 3 -22 -13 -28 -58 -32 -58 -6 0 9 -6 19 -12 21 -7 3 -3 6 8 6 12 1 25 9
29 19 8 16 8 16 12 0 3 -10 10 -18 18 -18z m-1044 -50 c10 0 10 -3 2 -11 -6
-6 -9 -18 -6 -25 3 -10 0 -12 -10 -8 -9 3 -25 1 -36 -5 -17 -10 -20 -9 -15 4
4 8 1 22 -6 30 -10 12 -10 15 3 15 8 0 18 8 22 18 6 16 7 16 19 0 7 -10 19
-18 27 -18z m-1853 -24 c11 -43 13 -45 54 -48 l43 -3 -38 -20 c-32 -16 -37
-23 -32 -43 3 -14 9 -38 12 -56 l6 -31 -40 38 -39 37 -34 -25 c-18 -14 -36
-23 -39 -20 -2 3 6 23 18 45 l22 40 -38 22 -38 23 47 3 c46 3 48 5 59 43 7 21
15 39 19 39 3 0 11 -20 18 -44z m-548 -31 c0 -8 6 -15 13 -15 6 0 12 -11 12
-23 0 -19 -5 -24 -26 -23 -28 1 -61 46 -33 46 8 0 14 7 14 15 0 8 5 15 10 15
6 0 10 -7 10 -15z m1101 -305 c10 0 10 -3 1 -12 -7 -7 -12 -21 -12 -31 0 -15
-3 -17 -14 -8 -7 6 -21 9 -30 5 -12 -5 -15 -2 -10 11 4 10 1 21 -7 26 -11 6
-8 9 9 9 14 0 22 6 22 18 1 16 1 16 14 0 7 -10 19 -18 27 -18z m2673 -3 c15
-14 3 -30 -25 -35 -18 -3 -21 28 -4 40 13 10 14 10 29 -5z m-1720 -47 c30 0
30 0 8 -16 -17 -12 -21 -21 -16 -42 l7 -27 -22 20 c-18 16 -25 17 -41 7 -28
-17 -31 -15 -20 12 7 19 5 26 -8 31 -15 6 -14 8 6 16 13 5 27 19 30 32 6 21 6
21 16 -5 8 -22 16 -28 40 -28z m717 -50 c48 0 49 -10 4 -34 -23 -13 -34 -25
-31 -35 12 -44 17 -81 10 -81 -5 0 -23 14 -40 31 l-33 32 -36 -23 c-44 -27
-54 -21 -26 18 28 39 27 48 -9 69 -41 24 -38 31 14 26 l44 -5 23 48 22 49 10
-47 c9 -47 10 -48 48 -48z m-3356 -10 c11 -4 23 -6 28 -3 14 8 7 -15 -8 -27
-9 -7 -14 -18 -12 -24 2 -6 8 -22 12 -36 l7 -25 -26 24 c-23 21 -29 23 -52 12
-25 -11 -25 -10 -19 18 4 21 2 30 -10 35 -20 7 -10 26 15 26 11 0 21 10 25 28
l8 27 6 -24 c4 -13 15 -27 26 -31z m2043 -170 c25 -1 26 -1 8 -15 -13 -10 -17
-21 -12 -39 7 -29 4 -31 -25 -13 -17 10 -22 9 -33 -5 -19 -26 -26 -22 -20 12
5 22 2 31 -10 36 -24 9 -19 24 9 24 19 0 26 7 32 27 l6 28 10 -28 c6 -20 15
-27 35 -27z m-1620 -112 c-2 -15 5 -26 22 -35 l25 -13 -22 -6 c-17 -5 -23 -14
-23 -36 l0 -30 -19 23 c-18 22 -19 22 -45 6 -29 -19 -33 -12 -11 17 12 16 12
21 -1 41 -14 21 -13 22 11 17 19 -3 30 1 41 17 19 27 26 27 22 -1z m3571 -18
c23 -1 24 -2 8 -11 -13 -8 -15 -14 -7 -29 16 -29 12 -34 -14 -17 -21 14 -25
14 -41 -1 -16 -16 -17 -16 -11 5 5 15 2 24 -10 31 -16 9 -15 10 4 16 13 5 22
16 23 29 l0 22 11 -22 c7 -15 20 -23 37 -23z m-366 -210 c-6 -21 -36 -21 -44
0 -3 8 -1 19 5 26 15 16 45 -4 39 -26z m-484 -98 c-5 -2 -7 -7 -5 -10 2 -4 -6
-7 -19 -7 -23 0 -24 15 -2 43 8 9 12 8 23 -5 7 -10 8 -20 3 -21z m-3019 -34
c0 -12 -6 -18 -17 -16 -25 4 -33 19 -20 33 16 17 37 7 37 -17z m1019 -49 c-5
-3 -6 -14 -2 -25 6 -17 5 -17 -10 -5 -9 7 -24 10 -33 7 -12 -5 -15 -2 -10 10
4 9 1 24 -6 32 -11 13 -10 15 5 9 11 -4 20 -1 23 8 5 12 10 10 24 -8 10 -12
14 -25 9 -28z m1273 -57 c-3 -16 -8 -20 -15 -13 -7 7 -16 7 -28 0 -15 -7 -17
-6 -13 6 4 8 1 22 -6 30 -10 12 -9 15 9 15 11 0 21 5 21 12 0 6 8 3 18 -8 11
-11 17 -28 14 -42z m1920 -2 c16 0 18 -3 9 -14 -6 -7 -8 -22 -4 -32 6 -17 5
-17 -10 -5 -14 11 -20 11 -34 0 -15 -12 -16 -12 -10 3 3 10 2 20 -3 23 -5 3
-2 14 8 23 9 10 19 14 20 10 2 -4 13 -8 24 -8z m-2506 -110 l38 0 -27 -28
c-27 -28 -27 -29 -12 -65 17 -42 10 -46 -28 -17 -33 26 -38 25 -72 -10 -39
-41 -46 -38 -31 15 l14 44 -37 23 -36 22 46 9 c43 8 47 12 59 50 l13 42 18
-42 c17 -40 21 -43 55 -43z m1719 -220 l30 -5 -23 -16 c-19 -14 -21 -20 -13
-43 13 -32 -2 -35 -23 -4 -15 20 -16 21 -34 5 -26 -24 -33 -21 -20 8 10 21 8
28 -8 40 -18 14 -18 14 4 15 15 0 26 9 34 28 l11 27 6 -25 c5 -18 16 -26 36
-30z m-3871 -65 c3 -8 13 -15 23 -15 14 0 15 -2 4 -9 -8 -5 -11 -16 -8 -26 6
-13 3 -15 -14 -10 -11 4 -27 1 -35 -6 -14 -11 -15 -10 -13 6 2 11 0 26 -4 33
-5 8 -3 12 7 12 9 0 16 7 16 15 0 8 4 15 9 15 5 0 11 -7 15 -15z m892 -215 c0
-21 -29 -21 -37 0 -8 19 12 40 26 27 6 -6 11 -18 11 -27z m2462 -60 c14 0 14
-2 3 -9 -8 -5 -11 -16 -8 -24 4 -11 1 -14 -9 -10 -8 3 -22 -1 -31 -8 -14 -12
-15 -11 -9 8 4 12 2 24 -3 28 -6 3 -4 13 7 23 13 14 19 15 25 5 4 -7 16 -13
25 -13z m1116 -14 c-6 -16 -34 -17 -34 -1 0 17 10 24 25 18 8 -2 12 -10 9 -17z
m-1928 -113 c3 -16 12 -23 27 -23 41 0 51 -16 18 -30 -29 -12 -30 -14 -25 -59
l5 -46 -31 38 -32 37 -34 -21 c-38 -23 -41 -21 -18 23 15 29 14 31 -7 54 l-22
24 34 0 c28 0 38 6 54 33 17 27 20 29 23 12 1 -11 5 -30 8 -42z m-1422 -23
c12 0 27 -4 35 -9 11 -7 9 -10 -9 -16 -19 -6 -21 -11 -15 -43 l7 -37 -24 23
c-29 26 -36 27 -60 5 -20 -18 -25 -4 -8 27 8 15 6 20 -10 25 -28 9 -25 25 5
25 18 0 26 7 32 28 l7 27 10 -27 c6 -18 17 -28 30 -28z m3229 -92 c6 -3 16 -4
24 -1 7 3 21 2 30 -1 14 -6 11 -10 -15 -26 -32 -20 -32 -20 -18 -55 17 -40 7
-45 -32 -14 l-27 21 -32 -39 c-34 -40 -45 -29 -21 22 11 24 9 28 -17 49 l-29
24 42 7 c23 4 42 11 42 15 0 5 5 21 11 37 l11 28 11 -30 c5 -16 15 -33 20 -37z
m-4052 -285 c7 -18 17 -23 46 -23 l38 -1 -23 -19 c-12 -10 -27 -20 -33 -22 -8
-3 -9 -17 -1 -53 6 -27 8 -52 6 -55 -3 -2 -20 13 -38 35 l-33 39 -34 -28 c-37
-31 -51 -21 -25 19 24 36 20 52 -16 72 l-33 18 46 3 c45 3 47 4 59 45 14 46
10 49 41 -30z m2352 11 c-3 -7 -10 -12 -16 -11 -18 3 -27 21 -15 28 17 11 38
-1 31 -17z m-610 -44 l32 0 -22 -18 c-17 -12 -21 -23 -16 -41 6 -23 6 -23 -21
-6 -20 14 -30 15 -39 6 -18 -18 -29 -13 -17 10 9 17 8 23 -7 35 -17 13 -17 13
4 14 16 0 25 8 30 27 l6 28 10 -28 c7 -22 15 -27 40 -27z m2754 -83 c15 6 16
4 5 -9 -7 -9 -9 -24 -5 -34 6 -17 5 -17 -10 -5 -13 10 -20 11 -31 2 -11 -9
-15 -6 -18 14 -3 14 -2 25 3 25 4 0 11 10 15 22 l7 23 8 -22 c6 -16 13 -21 26
-16z m-890 -47 c13 0 14 -3 6 -11 -6 -6 -9 -18 -6 -25 4 -10 0 -12 -11 -8 -9
3 -24 0 -33 -7 -15 -12 -16 -12 -10 5 4 10 2 25 -4 32 -9 11 -8 14 5 14 9 0
16 8 16 18 1 16 1 16 11 0 5 -10 17 -18 26 -18z m-3091 -39 c0 -9 -8 -17 -18
-17 -10 0 -18 6 -18 12 0 7 -6 15 -12 17 -8 3 -6 6 5 6 9 1 17 6 17 11 0 7 5
6 13 -1 7 -7 13 -20 13 -28z"/>
</g>
</svg>
